<?xml version="1.0" standalone="no"?>
<!DOCTYPE svg PUBLIC "-//W3C//DTD SVG 20010904//EN"
 "http://www.w3.org/TR/2001/REC-SVG-20010904/DTD/svg10.dtd">
<svg version="1.0" xmlns="http://www.w3.org/2000/svg"
 width="225.000000pt" height="225.000000pt" viewBox="0 0 225.000000 225.000000"
 preserveAspectRatio="xMidYMid meet">
<metadata>
Created by potrace 1.14, written by Peter Selinger 2001-2017
</metadata>
<g transform="translate(0.000000,225.000000) scale(0.100000,-0.100000)"
fill="#000000" stroke="none">
<path d="M0 1125 l0 -1125 1125 0 1125 0 0 1125 0 1125 -1125 0 -1125 0 0
-1125z m1191 647 c56 -27 104 -73 132 -126 17 -33 22 -58 22 -126 0 -73 -4
-92 -27 -136 -30 -57 -87 -113 -138 -134 l-35 -15 72 -6 c58 -4 88 -13 143
-42 75 -39 140 -48 171 -24 8 7 34 38 57 70 53 71 83 76 131 22 42 -49 64
-130 63 -239 -2 -269 -138 -438 -417 -518 -105 -30 -324 -32 -425 -4 -211 58
-337 185 -348 353 -4 63 -1 79 21 125 14 29 52 84 84 122 95 112 123 155 123
190 -1 54 -18 65 -114 75 -47 5 -93 14 -101 21 -16 13 -21 50 -7 50 5 0 17 6
27 14 18 13 17 15 -20 47 -60 53 -81 127 -40 143 8 3 44 -4 80 -15 63 -19 66
-19 105 -2 25 11 55 38 78 67 69 91 127 118 243 113 51 -2 90 -10 120 -25z"/>
<path d="M891 1676 c-13 -14 -21 -33 -19 -47 4 -30 24 -35 31 -8 4 16 11 20
23 15 20 -8 34 9 34 42 0 30 -39 30 -69 -2z"/>
</g>
</svg>
